<?xml version="1.0" encoding="utf-8"?>
<!-- Generator: Adobe Illustrator 23.0.3, SVG Export Plug-In . SVG Version: 6.00 Build 0)  -->
<svg version="1.1" id="Layer_3" xmlns="http://www.w3.org/2000/svg" xmlns:xlink="http://www.w3.org/1999/xlink" x="0px" y="0px"
	 viewBox="0 0 204.8 200.9" style="enable-background:new 0 0 204.8 200.9;" xml:space="preserve">
<style type="text/css">
	.st0{fill:#AF272F;}
</style>
<g>
	<g>
		<g>
			<path class="st0" d="M0,100.5c0,19.1,5.3,36.9,14.5,52.1C21.8,109.4,29,66.3,36.3,23.2C14.1,41.6,0,69.4,0,100.5z"/>
			<path class="st0" d="M161.6,154.5c-0.5-3.2-0.9-6.3-1.4-9.5c-0.7-4.8-1.4-9.6-2.1-14.4c-0.8-5.7-1.7-11.4-2.5-17.1
				c-0.2-1.2-0.4-2.5-0.6-3.7c-0.1,0-0.1,0-0.2-0.1c-0.1,0.2-0.3,0.4-0.4,0.7c-2.7,5.2-5.4,10.5-8.1,15.7
				c-6.6,12.8-13.3,25.6-19.9,38.3c-1.9,3.6-3.7,7.1-5.6,10.7c-1.7,3.3-5.7,3.5-7.6,0.4c-1.3-2.1-2.4-4.4-3.6-6.6
				c-5.8-11.1-11.5-22.1-17.3-33.2c-6.7-12.8-13.4-25.6-20-38.4C70.1,93.2,68,89,65.8,85c-0.1-0.2-0.4-0.3-0.6-0.6
				c-0.1,0.6-0.1,0.9-0.2,1.2c-0.5,3.3-0.9,6.5-1.4,9.8c-0.5,3.6-1,7.3-1.6,10.9c-0.5,3.3-0.9,6.6-1.4,10c-0.5,3.6-1,7.2-1.5,10.8
				c-0.5,3.3-0.9,6.6-1.4,9.9c-0.5,3.6-1,7.3-1.6,10.9c-0.4,2.7-0.7,5.4-1.1,8c-0.3,2.4-0.7,4.7-1,7.1c-0.4,2.5-0.7,5-1,7.5
				c-0.5,3.6-1,7.2-1.5,10.8c-0.3,2.2-0.6,4.3-0.9,6.5c14.7,8.5,31.8,13.3,50,13.3c24.5,0,47-8.8,64.4-23.4
				c-0.2-1.6-0.5-3.2-0.7-4.8C163.3,166.6,162.4,160.5,161.6,154.5z"/>
			<path class="st0" d="M100.5,0C87.6,0,75.4,2.4,64.1,6.8c18.4,39.3,36.7,78.6,55.1,118c1.3-2.3,2.5-4.6,3.7-6.8
				c2.5-4.7,5-9.4,7.6-14.1c10.1-18.8,20.3-37.7,30.4-56.5c0.4-0.7,0.8-1.4,1.2-2.1c0.8-1.4,2.5-2.3,4.2-2s3,1.3,3.3,3
				c0.6,2.7,1,5.5,1.5,8.2c1.1,6.8,2.3,13.6,3.4,20.3c1.2,7.3,2.5,14.7,3.7,22c1.6,9.2,3.1,18.5,4.7,27.7c1.4,8.4,2.8,16.8,4.2,25.2
				c0.1,0.5,0.2,0.9,0.2,1.4c8.7-14.9,13.7-32.2,13.7-50.6C200.9,45,156,0,100.5,0z"/>
		</g>
	</g>
</g>
</svg>
