<?xml version="1.0" encoding="utf-8"?>
<!-- Generator: Adobe Illustrator 22.1.0, SVG Export Plug-In . SVG Version: 6.00 Build 0)  -->
<svg version="1.1" id="Layer_3" xmlns="http://www.w3.org/2000/svg" xmlns:xlink="http://www.w3.org/1999/xlink" x="0px" y="0px"
	 viewBox="0 0 754.8 200.9" style="enable-background:new 0 0 754.8 200.9;" xml:space="preserve">
<style type="text/css">
	.st0{fill:#AF272F;}
	.st1{fill:#1D1D1B;}
</style>
<g>
	<g>
		<g>
			<path class="st0" d="M0,100.5c0,19.1,5.3,36.9,14.5,52.1c7.3-43.2,14.5-86.3,21.8-129.4C14.1,41.6,0,69.4,0,100.5z"/>
			<path class="st0" d="M161.6,154.5c-0.5-3.2-0.9-6.3-1.4-9.5c-0.7-4.8-1.4-9.6-2.1-14.4c-0.8-5.7-1.7-11.4-2.5-17.1
				c-0.2-1.2-0.4-2.5-0.6-3.7c-0.1,0-0.1,0-0.2-0.1c-0.1,0.2-0.3,0.4-0.4,0.7c-2.7,5.2-5.4,10.5-8.1,15.7
				c-6.6,12.8-13.3,25.6-19.9,38.3c-1.9,3.6-3.7,7.1-5.6,10.7c-1.7,3.3-5.7,3.5-7.6,0.4c-1.3-2.1-2.4-4.4-3.6-6.6
				c-5.8-11.1-11.5-22.1-17.3-33.2c-6.7-12.8-13.4-25.6-20-38.4C70.1,93.2,68,89,65.8,85c-0.1-0.2-0.4-0.3-0.6-0.6
				c-0.1,0.6-0.1,0.9-0.2,1.2c-0.5,3.3-0.9,6.5-1.4,9.8c-0.5,3.6-1,7.3-1.6,10.9c-0.5,3.3-0.9,6.6-1.4,10c-0.5,3.6-1,7.2-1.5,10.8
				c-0.5,3.3-0.9,6.6-1.4,9.9c-0.5,3.6-1,7.3-1.6,10.9c-0.4,2.7-0.7,5.4-1.1,8c-0.3,2.4-0.7,4.7-1,7.1c-0.4,2.5-0.7,5-1,7.5
				c-0.5,3.6-1,7.2-1.5,10.8c-0.3,2.2-0.6,4.3-0.9,6.5c14.7,8.5,31.8,13.3,50,13.3c24.5,0,47-8.8,64.4-23.4
				c-0.2-1.6-0.5-3.2-0.7-4.8C163.3,166.6,162.4,160.5,161.6,154.5z"/>
			<path class="st0" d="M100.5,0C87.6,0,75.4,2.4,64.1,6.8c18.4,39.3,36.7,78.6,55.1,118c1.3-2.3,2.5-4.6,3.7-6.8
				c2.5-4.7,5-9.4,7.6-14.1c10.1-18.8,20.3-37.7,30.4-56.5c0.4-0.7,0.8-1.4,1.2-2.1c0.8-1.4,2.5-2.3,4.2-2c1.7,0.3,3,1.3,3.3,3
				c0.6,2.7,1,5.5,1.5,8.2c1.1,6.8,2.3,13.6,3.4,20.3c1.2,7.3,2.5,14.7,3.7,22c1.6,9.2,3.1,18.5,4.7,27.7c1.4,8.4,2.8,16.8,4.2,25.2
				c0.1,0.5,0.2,0.9,0.2,1.4c8.7-14.9,13.7-32.2,13.7-50.6C200.9,45,156,0,100.5,0z"/>
		</g>
	</g>
</g>
<g>
	<path class="st1" d="M233.1,79.5c0.1-0.6,0.6-1,1.1-1h1c0.3,0,0.9,0.2,1,0.6l14.1,26.3h0.1l14.1-26.3c0.2-0.4,0.7-0.6,1-0.6h1
		c0.5,0,1,0.4,1.1,1l6.9,40.9c0.1,0.8-0.4,1.3-1.2,1.3h-7.2c-0.5,0-1.1-0.5-1.2-1l-2.7-18.8h-0.1L252,121.7c-0.2,0.4-0.7,0.7-1,0.7
		h-1.1c-0.4,0-0.9-0.3-1-0.7L238.5,102h-0.1l-2.7,18.8c-0.1,0.5-0.5,1-1.2,1h-7.2c-0.7,0-1.3-0.6-1.2-1.3L233.1,79.5z"/>
	<path class="st1" d="M282.4,80.3c0-0.6,0.5-1.2,1.2-1.2h25.2c0.7,0,1.2,0.6,1.2,1.2V87c0,0.6-0.5,1.2-1.2,1.2h-16.9v7.6h13.9
		c0.6,0,1.2,0.6,1.2,1.2v6.6c0,0.7-0.5,1.2-1.2,1.2h-13.9v8.2h16.9c0.7,0,1.2,0.5,1.2,1.2v6.6c0,0.6-0.5,1.2-1.2,1.2h-25.2
		c-0.7,0-1.2-0.6-1.2-1.2V80.3z"/>
	<path class="st1" d="M318.1,80.3c0-0.6,0.5-1.2,1.2-1.2h18.2c7.3,0,13.3,5.9,13.3,13.2c0,5.6-3.7,10.1-9,12.2l8.3,15.5
		c0.4,0.8,0,1.8-1,1.8H341c-0.5,0-0.9-0.3-1-0.6l-8.1-16.1h-4.2v15.5c0,0.6-0.5,1.2-1.2,1.2h-7.2c-0.7,0-1.2-0.6-1.2-1.2V80.3z
		 M336.7,97.4c2.5,0,4.6-2.3,4.6-4.9c0-2.6-2.1-4.6-4.6-4.6h-9v9.5H336.7z"/>
	<path class="st1" d="M377.8,78.5c6.1,0,10.6,1.9,14.7,5.7c0.5,0.5,0.5,1.2,0.1,1.7l-4.7,4.9c-0.4,0.4-1.1,0.4-1.5,0
		c-2.3-2-5.2-3.1-8.2-3.1c-6.9,0-11.9,5.7-11.9,12.5c0,6.8,5.1,12.4,12,12.4c2.9,0,6-1,8.2-2.9c0.4-0.4,1.2-0.4,1.6,0.1l4.8,5.1
		c0.4,0.4,0.4,1.2-0.1,1.6c-4.1,4-9.4,5.9-14.8,5.9c-12.2,0-22-9.7-22-21.9S365.7,78.5,377.8,78.5z"/>
	<path class="st1" d="M400,80.3c0-0.6,0.5-1.2,1.2-1.2h7.2c0.7,0,1.2,0.6,1.2,1.2v15.3h17.4V80.3c0-0.6,0.5-1.2,1.2-1.2h7.2
		c0.6,0,1.2,0.6,1.2,1.2v40.3c0,0.6-0.5,1.2-1.2,1.2h-7.2c-0.7,0-1.2-0.6-1.2-1.2v-16h-17.4v16c0,0.6-0.5,1.2-1.2,1.2h-7.2
		c-0.6,0-1.2-0.6-1.2-1.2V80.3z"/>
	<path class="st1" d="M441.5,120.2l19.1-41c0.2-0.4,0.6-0.7,1-0.7h0.6c0.4,0,0.9,0.3,1,0.7l19.1,41c0.4,0.8-0.1,1.6-1,1.6h-6.8
		c-1.1,0-1.6-0.4-2.1-1.5l-2.2-4.8h-16.6l-2.2,4.9c-0.3,0.7-1,1.5-2.2,1.5h-6.7C441.6,121.8,441.2,121,441.5,120.2z M466.6,107.2
		l-4.6-10h-0.1l-4.6,10H466.6z"/>
	<path class="st1" d="M487.3,79.6c0-0.6,0.5-1.1,1.2-1.1h1.5l24.3,23.4h0.1V80.3c0-0.6,0.5-1.2,1.2-1.2h7.3c0.6,0,1.2,0.6,1.2,1.2
		v41c0,0.6-0.5,1.1-1.2,1.1h-1c-0.2,0-0.7-0.2-0.8-0.3L497,97.9h-0.1v22.7c0,0.6-0.5,1.2-1.2,1.2h-7.2c-0.6,0-1.2-0.6-1.2-1.2
		L487.3,79.6z"/>
	<path class="st1" d="M534.4,80.3c0-0.6,0.5-1.2,1.1-1.2h14.9c11.8,0,21.4,9.6,21.4,21.3c0,11.8-9.6,21.4-21.4,21.4h-14.9
		c-0.6,0-1.1-0.6-1.1-1.2V80.3z M549.8,112.8c6.9,0,11.9-5.4,11.9-12.4c0-6.9-5-12.3-11.9-12.3h-5.8v24.7H549.8z"/>
	<path class="st1" d="M579.2,80.3c0-0.6,0.5-1.2,1.2-1.2h7.3c0.6,0,1.2,0.6,1.2,1.2v40.3c0,0.6-0.5,1.2-1.2,1.2h-7.3
		c-0.6,0-1.2-0.6-1.2-1.2V80.3z"/>
	<path class="st1" d="M596.9,116l2.9-5.1c0.5-0.8,1.6-0.7,2.1-0.4c0.2,0.1,4.6,3.4,8.6,3.4c2.4,0,4.2-1.5,4.2-3.7
		c0-2.6-2.1-4.5-6.3-6.2c-5.2-2.1-11.8-6.1-11.8-13.5c0-6,4.7-12.1,14.1-12.1c6.3,0,11.2,3.2,13,4.6c0.7,0.4,0.6,1.5,0.4,1.9
		l-3.1,4.7c-0.4,0.7-1.5,1.2-2.1,0.8c-0.5-0.3-5-3.7-8.7-3.7c-2.2,0-3.8,1.5-3.8,3.1c0,2.3,1.8,4,6.6,5.9
		c4.8,1.9,12.3,5.6,12.3,13.9c0,6.3-5.4,12.6-14.4,12.6c-7.9,0-12.3-3.3-13.7-4.7C596.6,117.1,596.4,116.9,596.9,116z"/>
	<path class="st1" d="M632.7,80.3c0-0.6,0.5-1.2,1.2-1.2h25.2c0.7,0,1.2,0.6,1.2,1.2V87c0,0.6-0.5,1.2-1.2,1.2h-16.9v7.6h13.9
		c0.6,0,1.2,0.6,1.2,1.2v6.6c0,0.7-0.5,1.2-1.2,1.2h-13.9v8.2h16.9c0.7,0,1.2,0.5,1.2,1.2v6.6c0,0.6-0.5,1.2-1.2,1.2h-25.2
		c-0.7,0-1.2-0.6-1.2-1.2V80.3z"/>
	<path class="st1" d="M670.6,110.8c3.2,0,5.8,2.7,5.8,5.8c0,3.1-2.7,5.7-5.8,5.7c-3.1,0-5.7-2.6-5.7-5.7
		C664.8,113.5,667.5,110.8,670.6,110.8z"/>
	<path class="st1" d="M682.4,79.6c0-0.6,0.5-1.1,1.2-1.1h1.5l24.3,23.4h0.1V80.3c0-0.6,0.5-1.2,1.2-1.2h7.3c0.6,0,1.2,0.6,1.2,1.2
		v41c0,0.6-0.5,1.1-1.2,1.1h-1c-0.2,0-0.7-0.2-0.8-0.3l-24.1-24.2H692v22.7c0,0.6-0.5,1.2-1.2,1.2h-7.2c-0.6,0-1.2-0.6-1.2-1.2
		L682.4,79.6z"/>
	<path class="st1" d="M729.6,80.3c0-0.6,0.5-1.2,1.2-1.2h7.2c0.6,0,1.2,0.6,1.2,1.2v32.5h14.5c0.7,0,1.2,0.5,1.2,1.2v6.6
		c0,0.6-0.5,1.2-1.2,1.2h-22.9c-0.7,0-1.2-0.6-1.2-1.2V80.3z"/>
</g>
</svg>
